<?xml version="1.0" encoding="UTF-8" standalone="no"?>
<!DOCTYPE svg PUBLIC "-//W3C//DTD SVG 1.1//EN"
 "http://www.w3.org/Graphics/SVG/1.1/DTD/svg11.dtd">
<!-- Generated by graphviz version 2.40.1 (20161225.0304)
 -->
<!-- Title: G Pages: 1 -->
<svg width="359pt" height="404pt"
 viewBox="0.00 0.00 359.15 404.00" xmlns="http://www.w3.org/2000/svg" xmlns:xlink="http://www.w3.org/1999/xlink">
<g id="graph0" class="graph" transform="scale(1 1) rotate(0) translate(4 400)">
<title>G</title>
<polygon fill="#ffffff" stroke="transparent" points="-4,4 -4,-400 355.1471,-400 355.1471,4 -4,4"/>
<!-- category -->
<g id="node1" class="node">
<title>category</title>
<g id="a_node1"><a xlink:href="http://groupoid.space/mltt/types/#category" xlink:title="category">
<ellipse fill="none" stroke="#000000" cx="150.1471" cy="-378" rx="42.4939" ry="18"/>
<text text-anchor="middle" x="150.1471" y="-374.3" font-family="Times,serif" font-size="14.00" fill="#000000">category</text>
</a>
</g>
</g>
<!-- iso_pi -->
<g id="node5" class="node">
<title>iso_pi</title>
<g id="a_node5"><a xlink:href="http://groupoid.space/mltt/types/#iso_pi" xlink:title="iso_pi">
<ellipse fill="none" stroke="#000000" cx="262.1471" cy="-306" rx="33.5952" ry="18"/>
<text text-anchor="middle" x="262.1471" y="-302.3" font-family="Times,serif" font-size="14.00" fill="#000000">iso_pi</text>
</a>
</g>
</g>
<!-- category&#45;&gt;iso_pi -->
<g id="edge2" class="edge">
<title>category&#45;&gt;iso_pi</title>
<path fill="none" stroke="#000000" d="M173.6259,-362.9064C190.4939,-352.0627 213.3863,-337.3462 231.6649,-325.5957"/>
<polygon fill="#000000" stroke="#000000" points="233.7017,-328.4472 240.2209,-320.0954 229.9164,-322.5589 233.7017,-328.4472"/>
</g>
<!-- iso_sigma -->
<g id="node6" class="node">
<title>iso_sigma</title>
<g id="a_node6"><a xlink:href="http://groupoid.space/mltt/types/#iso_sigma" xlink:title="iso_sigma">
<ellipse fill="none" stroke="#000000" cx="162.1471" cy="-306" rx="48.1917" ry="18"/>
<text text-anchor="middle" x="162.1471" y="-302.3" font-family="Times,serif" font-size="14.00" fill="#000000">iso_sigma</text>
</a>
</g>
</g>
<!-- category&#45;&gt;iso_sigma -->
<g id="edge1" class="edge">
<title>category&#45;&gt;iso_sigma</title>
<path fill="none" stroke="#000000" d="M153.1752,-359.8314C154.4586,-352.131 155.9847,-342.9743 157.411,-334.4166"/>
<polygon fill="#000000" stroke="#000000" points="160.8865,-334.8526 159.0782,-324.4133 153.9817,-333.7018 160.8865,-334.8526"/>
</g>
<!-- univ -->
<g id="node15" class="node">
<title>univ</title>
<g id="a_node15"><a xlink:href="http://groupoid.space/mltt/types/#univ" xlink:title="univ">
<ellipse fill="none" stroke="#000000" cx="68.1471" cy="-306" rx="27.8951" ry="18"/>
<text text-anchor="middle" x="68.1471" y="-302.3" font-family="Times,serif" font-size="14.00" fill="#000000">univ</text>
</a>
</g>
</g>
<!-- category&#45;&gt;univ -->
<g id="edge3" class="edge">
<title>category&#45;&gt;univ</title>
<path fill="none" stroke="#000000" d="M131.54,-361.6621C119.9889,-351.5197 105.0171,-338.3737 92.5241,-327.4042"/>
<polygon fill="#000000" stroke="#000000" points="94.557,-324.5315 84.7333,-320.5635 89.9384,-329.7916 94.557,-324.5315"/>
</g>
<!-- coproduct_set -->
<g id="node2" class="node">
<title>coproduct_set</title>
<g id="a_node2"><a xlink:href="http://groupoid.space/mltt/types/#coproduct_set" xlink:title="coproduct_set">
<ellipse fill="none" stroke="#000000" cx="273.1471" cy="-378" rx="63.0888" ry="18"/>
<text text-anchor="middle" x="273.1471" y="-374.3" font-family="Times,serif" font-size="14.00" fill="#000000">coproduct_set</text>
</a>
</g>
</g>
<!-- coproduct_set&#45;&gt;iso_pi -->
<g id="edge5" class="edge">
<title>coproduct_set&#45;&gt;iso_pi</title>
<path fill="none" stroke="#000000" d="M270.3713,-359.8314C269.1948,-352.131 267.7959,-342.9743 266.4885,-334.4166"/>
<polygon fill="#000000" stroke="#000000" points="269.9304,-333.7699 264.9602,-324.4133 263.0107,-334.8272 269.9304,-333.7699"/>
</g>
<!-- coproduct_set&#45;&gt;iso_sigma -->
<g id="edge4" class="edge">
<title>coproduct_set&#45;&gt;iso_sigma</title>
<path fill="none" stroke="#000000" d="M247.6814,-361.4817C231.984,-351.2996 211.6994,-338.1421 194.8239,-327.1958"/>
<polygon fill="#000000" stroke="#000000" points="196.6465,-324.2062 186.3522,-321.7006 192.8371,-330.079 196.6465,-324.2062"/>
</g>
<!-- path -->
<g id="node7" class="node">
<title>path</title>
<g id="a_node7"><a xlink:href="http://groupoid.space/mltt/types/#path" xlink:title="path">
<ellipse fill="none" stroke="#000000" cx="324.1471" cy="-162" rx="27" ry="18"/>
<text text-anchor="middle" x="324.1471" y="-158.3" font-family="Times,serif" font-size="14.00" fill="#000000">path</text>
</a>
</g>
</g>
<!-- coproduct_set&#45;&gt;path -->
<g id="edge6" class="edge">
<title>coproduct_set&#45;&gt;path</title>
<path fill="none" stroke="#000000" d="M286.4466,-359.9456C293.1784,-349.8713 300.8214,-336.8018 305.1471,-324 320.377,-278.9275 323.8001,-223.2413 324.3539,-190.2855"/>
<polygon fill="#000000" stroke="#000000" points="327.856,-190.0594 324.4447,-180.0287 320.8562,-189.9974 327.856,-190.0594"/>
</g>
<!-- equiv -->
<g id="node3" class="node">
<title>equiv</title>
<g id="a_node3"><a xlink:href="http://groupoid.space/mltt/types/#equiv" xlink:title="equiv">
<ellipse fill="none" stroke="#000000" cx="147.1471" cy="-234" rx="31.6951" ry="18"/>
<text text-anchor="middle" x="147.1471" y="-230.3" font-family="Times,serif" font-size="14.00" fill="#000000">equiv</text>
</a>
</g>
</g>
<!-- proto_equiv -->
<g id="node11" class="node">
<title>proto_equiv</title>
<g id="a_node11"><a xlink:href="http://groupoid.space/mltt/types/#proto_equiv" xlink:title="proto_equiv">
<ellipse fill="none" stroke="#000000" cx="150.1471" cy="-162" rx="56.59" ry="18"/>
<text text-anchor="middle" x="150.1471" y="-158.3" font-family="Times,serif" font-size="14.00" fill="#000000">proto_equiv</text>
</a>
</g>
</g>
<!-- equiv&#45;&gt;proto_equiv -->
<g id="edge7" class="edge">
<title>equiv&#45;&gt;proto_equiv</title>
<path fill="none" stroke="#000000" d="M147.9041,-215.8314C148.2249,-208.131 148.6065,-198.9743 148.963,-190.4166"/>
<polygon fill="#000000" stroke="#000000" points="152.4604,-190.5503 149.3798,-180.4133 145.4665,-190.2589 152.4604,-190.5503"/>
</g>
<!-- iso -->
<g id="node4" class="node">
<title>iso</title>
<g id="a_node4"><a xlink:href="http://groupoid.space/mltt/types/#iso" xlink:title="iso">
<ellipse fill="none" stroke="#000000" cx="224.1471" cy="-234" rx="27" ry="18"/>
<text text-anchor="middle" x="224.1471" y="-230.3" font-family="Times,serif" font-size="14.00" fill="#000000">iso</text>
</a>
</g>
</g>
<!-- iso&#45;&gt;proto_equiv -->
<g id="edge8" class="edge">
<title>iso&#45;&gt;proto_equiv</title>
<path fill="none" stroke="#000000" d="M208.8142,-219.0816C199.1144,-209.6439 186.3471,-197.2217 175.2004,-186.3762"/>
<polygon fill="#000000" stroke="#000000" points="177.4079,-183.6408 167.7999,-179.1757 172.5264,-188.6579 177.4079,-183.6408"/>
</g>
<!-- iso_pi&#45;&gt;iso -->
<g id="edge10" class="edge">
<title>iso_pi&#45;&gt;iso</title>
<path fill="none" stroke="#000000" d="M252.9483,-288.5708C248.4674,-280.0807 242.985,-269.6929 238.0104,-260.2674"/>
<polygon fill="#000000" stroke="#000000" points="241.0241,-258.4789 233.2611,-251.2687 234.8334,-261.7462 241.0241,-258.4789"/>
</g>
<!-- pi -->
<g id="node8" class="node">
<title>pi</title>
<g id="a_node8"><a xlink:href="http://groupoid.space/mltt/types/#pi" xlink:title="pi">
<ellipse fill="none" stroke="#000000" cx="252.1471" cy="-162" rx="27" ry="18"/>
<text text-anchor="middle" x="252.1471" y="-158.3" font-family="Times,serif" font-size="14.00" fill="#000000">pi</text>
</a>
</g>
</g>
<!-- iso_pi&#45;&gt;pi -->
<g id="edge9" class="edge">
<title>iso_pi&#45;&gt;pi</title>
<path fill="none" stroke="#000000" d="M262.4082,-287.6928C262.5107,-269.4823 262.2481,-240.7609 260.1471,-216 259.4259,-207.501 258.223,-198.3036 256.9663,-189.9494"/>
<polygon fill="#000000" stroke="#000000" points="260.4012,-189.2626 255.3778,-179.9343 253.4876,-190.3592 260.4012,-189.2626"/>
</g>
<!-- iso_sigma&#45;&gt;iso -->
<g id="edge12" class="edge">
<title>iso_sigma&#45;&gt;iso</title>
<path fill="none" stroke="#000000" d="M177.1555,-288.5708C185.1866,-279.2444 195.1896,-267.6281 203.8998,-257.513"/>
<polygon fill="#000000" stroke="#000000" points="206.6726,-259.6567 210.5457,-249.7951 201.3682,-255.089 206.6726,-259.6567"/>
</g>
<!-- sigma -->
<g id="node14" class="node">
<title>sigma</title>
<g id="a_node14"><a xlink:href="http://groupoid.space/mltt/types/#sigma" xlink:title="sigma">
<ellipse fill="none" stroke="#000000" cx="65.1471" cy="-234" rx="32.4942" ry="18"/>
<text text-anchor="middle" x="65.1471" y="-230.3" font-family="Times,serif" font-size="14.00" fill="#000000">sigma</text>
</a>
</g>
</g>
<!-- iso_sigma&#45;&gt;sigma -->
<g id="edge11" class="edge">
<title>iso_sigma&#45;&gt;sigma</title>
<path fill="none" stroke="#000000" d="M140.1363,-289.6621C126.2119,-279.3265 108.0854,-265.8718 93.1421,-254.7798"/>
<polygon fill="#000000" stroke="#000000" points="94.8831,-251.7133 84.7673,-248.5635 90.711,-257.3341 94.8831,-251.7133"/>
</g>
<!-- proto_path -->
<g id="node12" class="node">
<title>proto_path</title>
<g id="a_node12"><a xlink:href="http://groupoid.space/mltt/types/#proto_path" xlink:title="proto_path">
<ellipse fill="none" stroke="#000000" cx="251.1471" cy="-18" rx="51.9908" ry="18"/>
<text text-anchor="middle" x="251.1471" y="-14.3" font-family="Times,serif" font-size="14.00" fill="#000000">proto_path</text>
</a>
</g>
</g>
<!-- path&#45;&gt;proto_path -->
<g id="edge13" class="edge">
<title>path&#45;&gt;proto_path</title>
<path fill="none" stroke="#000000" d="M315.4863,-144.9158C302.9995,-120.2842 279.8102,-74.5411 264.9478,-45.2233"/>
<polygon fill="#000000" stroke="#000000" points="267.8976,-43.3015 260.2542,-35.9647 261.654,-46.4666 267.8976,-43.3015"/>
</g>
<!-- pi&#45;&gt;proto_path -->
<g id="edge14" class="edge">
<title>pi&#45;&gt;proto_path</title>
<path fill="none" stroke="#000000" d="M252.0204,-143.7623C251.8498,-119.201 251.5446,-75.2474 251.344,-46.3541"/>
<polygon fill="#000000" stroke="#000000" points="254.8421,-46.065 251.2727,-36.0896 247.8423,-46.1137 254.8421,-46.065"/>
</g>
<!-- propset -->
<g id="node9" class="node">
<title>propset</title>
<g id="a_node9"><a xlink:href="http://groupoid.space/mltt/types/#propset" xlink:title="propset">
<ellipse fill="none" stroke="#000000" cx="150.1471" cy="-90" rx="38.1938" ry="18"/>
<text text-anchor="middle" x="150.1471" y="-86.3" font-family="Times,serif" font-size="14.00" fill="#000000">propset</text>
</a>
</g>
</g>
<!-- proto -->
<g id="node10" class="node">
<title>proto</title>
<g id="a_node10"><a xlink:href="http://groupoid.space/mltt/types/#proto" xlink:title="proto">
<ellipse fill="none" stroke="#000000" cx="150.1471" cy="-18" rx="30.5947" ry="18"/>
<text text-anchor="middle" x="150.1471" y="-14.3" font-family="Times,serif" font-size="14.00" fill="#000000">proto</text>
</a>
</g>
</g>
<!-- propset&#45;&gt;proto -->
<g id="edge15" class="edge">
<title>propset&#45;&gt;proto</title>
<path fill="none" stroke="#000000" d="M150.1471,-71.8314C150.1471,-64.131 150.1471,-54.9743 150.1471,-46.4166"/>
<polygon fill="#000000" stroke="#000000" points="153.6472,-46.4132 150.1471,-36.4133 146.6472,-46.4133 153.6472,-46.4132"/>
</g>
<!-- propset&#45;&gt;proto_path -->
<g id="edge16" class="edge">
<title>propset&#45;&gt;proto_path</title>
<path fill="none" stroke="#000000" d="M171.5666,-74.7307C185.6376,-64.6998 204.278,-51.4116 219.9808,-40.2175"/>
<polygon fill="#000000" stroke="#000000" points="222.2436,-42.9028 228.3548,-34.248 218.1803,-37.2028 222.2436,-42.9028"/>
</g>
<!-- proto_equiv&#45;&gt;propset -->
<g id="edge17" class="edge">
<title>proto_equiv&#45;&gt;propset</title>
<path fill="none" stroke="#000000" d="M150.1471,-143.8314C150.1471,-136.131 150.1471,-126.9743 150.1471,-118.4166"/>
<polygon fill="#000000" stroke="#000000" points="153.6472,-118.4132 150.1471,-108.4133 146.6472,-118.4133 153.6472,-118.4132"/>
</g>
<!-- retract -->
<g id="node13" class="node">
<title>retract</title>
<g id="a_node13"><a xlink:href="http://groupoid.space/mltt/types/#retract" xlink:title="retract">
<ellipse fill="none" stroke="#000000" cx="33.1471" cy="-90" rx="33.2948" ry="18"/>
<text text-anchor="middle" x="33.1471" y="-86.3" font-family="Times,serif" font-size="14.00" fill="#000000">retract</text>
</a>
</g>
</g>
<!-- retract&#45;&gt;proto_path -->
<g id="edge18" class="edge">
<title>retract&#45;&gt;proto_path</title>
<path fill="none" stroke="#000000" d="M61.6468,-80.5873C97.7302,-68.6698 160.4064,-47.9694 203.7435,-33.6562"/>
<polygon fill="#000000" stroke="#000000" points="205.0992,-36.8945 213.497,-30.4349 202.9038,-30.2476 205.0992,-36.8945"/>
</g>
<!-- sigma&#45;&gt;propset -->
<g id="edge19" class="edge">
<title>sigma&#45;&gt;propset</title>
<path fill="none" stroke="#000000" d="M65.4912,-215.8015C66.6144,-196.6442 70.6178,-166.238 84.1471,-144 92.3998,-130.435 105.3217,-118.7581 117.5519,-109.7683"/>
<polygon fill="#000000" stroke="#000000" points="119.6443,-112.5761 125.8427,-103.9836 115.6388,-106.8354 119.6443,-112.5761"/>
</g>
<!-- univ&#45;&gt;equiv -->
<g id="edge22" class="edge">
<title>univ&#45;&gt;equiv</title>
<path fill="none" stroke="#000000" d="M84.5159,-291.0816C95.4897,-281.0801 110.1412,-267.7269 122.514,-256.4504"/>
<polygon fill="#000000" stroke="#000000" points="125.2208,-258.719 130.2541,-249.3961 120.5055,-253.5453 125.2208,-258.719"/>
</g>
<!-- univ&#45;&gt;iso -->
<g id="edge21" class="edge">
<title>univ&#45;&gt;iso</title>
<path fill="none" stroke="#000000" d="M90.3773,-294.9913C95.2266,-292.6442 100.3444,-290.2085 105.1471,-288 141.679,-271.2009 151.707,-268.9974 188.1471,-252 189.9044,-251.1803 191.7037,-250.3268 193.5153,-249.4565"/>
<polygon fill="#000000" stroke="#000000" points="195.0929,-252.5812 202.5378,-245.043 192.017,-246.2931 195.0929,-252.5812"/>
</g>
<!-- univ&#45;&gt;retract -->
<g id="edge20" class="edge">
<title>univ&#45;&gt;retract</title>
<path fill="none" stroke="#000000" d="M51.3941,-291.299C41.3802,-281.3467 29.5795,-267.2671 24.1471,-252 8.2131,-207.2196 17.1945,-151.0896 25.1687,-118.0271"/>
<polygon fill="#000000" stroke="#000000" points="28.6087,-118.7015 27.6895,-108.1466 21.826,-116.971 28.6087,-118.7015"/>
</g>
<!-- univ&#45;&gt;sigma -->
<g id="edge23" class="edge">
<title>univ&#45;&gt;sigma</title>
<path fill="none" stroke="#000000" d="M67.39,-287.8314C67.0692,-280.131 66.6877,-270.9743 66.3311,-262.4166"/>
<polygon fill="#000000" stroke="#000000" points="69.8276,-262.2589 65.9143,-252.4133 62.8337,-262.5503 69.8276,-262.2589"/>
</g>
</g>
</svg>
